<mxfile host="app.diagrams.net" modified="2021-03-03T20:45:21.452Z" agent="5.0 (Windows NT 10.0; Win64; x64) AppleWebKit/537.36 (KHTML, like Gecko) Chrome/88.0.4324.182 Safari/537.36 Edg/88.0.705.81" etag="I9IkYEo9H8583QQy7XWi" version="14.4.4" type="github">
  <diagram id="oat8cXdgs4v1Sx3bqrZk" name="Page-1">
    <mxGraphModel dx="1952" dy="614" grid="1" gridSize="10" guides="1" tooltips="1" connect="1" arrows="1" fold="1" page="1" pageScale="1" pageWidth="850" pageHeight="1100" math="0" shadow="0">
      <root>
        <mxCell id="0" />
        <mxCell id="1" parent="0" />
        <mxCell id="0UiauS-0_PkHhNujrABY-11" value="&lt;p style=&quot;margin: 0px ; margin-top: 4px ; text-align: center&quot;&gt;&lt;b&gt;Shoe&lt;/b&gt;&lt;/p&gt;&lt;hr size=&quot;1&quot;&gt;&lt;p style=&quot;margin: 0px ; margin-left: 4px&quot;&gt;laces: boolean&lt;/p&gt;&lt;p style=&quot;margin: 0px ; margin-left: 4px&quot;&gt;size: number&lt;/p&gt;&lt;p style=&quot;margin: 0px ; margin-left: 4px&quot;&gt;brand: string&lt;/p&gt;&lt;hr size=&quot;1&quot;&gt;&lt;p style=&quot;margin: 0px ; margin-left: 4px&quot;&gt;+ method(): Type&lt;/p&gt;" style="verticalAlign=top;align=left;overflow=fill;fontSize=12;fontFamily=Helvetica;html=1;" parent="1" vertex="1">
          <mxGeometry x="230" y="50" width="160" height="110" as="geometry" />
        </mxCell>
        <mxCell id="0UiauS-0_PkHhNujrABY-12" value="&lt;p style=&quot;margin: 0px ; margin-top: 4px ; text-align: center&quot;&gt;&lt;b&gt;Shoestore&lt;/b&gt;&lt;/p&gt;&lt;hr size=&quot;1&quot;&gt;&lt;p style=&quot;margin: 0px ; margin-left: 4px&quot;&gt;customer: Person&lt;/p&gt;&lt;p style=&quot;margin: 0px ; margin-left: 4px&quot;&gt;footwear[ ]: Shoe&lt;/p&gt;&lt;p style=&quot;margin: 0px ; margin-left: 4px&quot;&gt;shoesinstock: number&lt;/p&gt;&lt;hr size=&quot;1&quot;&gt;&lt;p style=&quot;margin: 0px ; margin-left: 4px&quot;&gt;matchPreferences&lt;/p&gt;" style="verticalAlign=top;align=left;overflow=fill;fontSize=12;fontFamily=Helvetica;html=1;" parent="1" vertex="1">
          <mxGeometry x="400" y="50" width="160" height="110" as="geometry" />
        </mxCell>
        <mxCell id="0UiauS-0_PkHhNujrABY-13" value="&lt;p style=&quot;margin: 0px ; margin-top: 4px ; text-align: center&quot;&gt;&lt;b&gt;Person&lt;/b&gt;&lt;/p&gt;&lt;hr size=&quot;1&quot;&gt;&lt;p style=&quot;margin: 0px ; margin-left: 4px&quot;&gt;laces: boolean&lt;/p&gt;&lt;p style=&quot;margin: 0px ; margin-left: 4px&quot;&gt;size: number&lt;/p&gt;&lt;p style=&quot;margin: 0px ; margin-left: 4px&quot;&gt;brand[ ]: string&lt;/p&gt;&lt;hr size=&quot;1&quot;&gt;&lt;p style=&quot;margin: 0px ; margin-left: 4px&quot;&gt;+ method(): Type&lt;br&gt;&lt;/p&gt;" style="verticalAlign=top;align=left;overflow=fill;fontSize=12;fontFamily=Helvetica;html=1;" parent="1" vertex="1">
          <mxGeometry x="60" y="50" width="160" height="110" as="geometry" />
        </mxCell>
        <mxCell id="0UiauS-0_PkHhNujrABY-17" value="" style="ellipse;fillColor=#000000;strokeColor=none;" parent="1" vertex="1">
          <mxGeometry x="300" y="200" width="20" height="20" as="geometry" />
        </mxCell>
        <mxCell id="0UiauS-0_PkHhNujrABY-69" style="edgeStyle=orthogonalEdgeStyle;rounded=0;orthogonalLoop=1;jettySize=auto;html=1;exitX=1;exitY=0;exitDx=0;exitDy=0;entryX=0;entryY=0.5;entryDx=0;entryDy=0;startArrow=classic;startFill=1;endArrow=none;endFill=0;strokeColor=#000000;" parent="1" source="0UiauS-0_PkHhNujrABY-18" target="0UiauS-0_PkHhNujrABY-67" edge="1">
          <mxGeometry relative="1" as="geometry">
            <Array as="points">
              <mxPoint x="340" y="285" />
            </Array>
          </mxGeometry>
        </mxCell>
        <mxCell id="0UiauS-0_PkHhNujrABY-18" value="" style="rhombus;whiteSpace=wrap;html=1;" parent="1" vertex="1">
          <mxGeometry x="250" y="290" width="120" height="60" as="geometry" />
        </mxCell>
        <mxCell id="0UiauS-0_PkHhNujrABY-20" value="Customer.laces?" style="text;html=1;strokeColor=none;fillColor=none;align=center;verticalAlign=middle;whiteSpace=wrap;rounded=0;" parent="1" vertex="1">
          <mxGeometry x="265" y="310" width="90" height="20" as="geometry" />
        </mxCell>
        <mxCell id="0UiauS-0_PkHhNujrABY-24" style="edgeStyle=orthogonalEdgeStyle;rounded=0;orthogonalLoop=1;jettySize=auto;html=1;exitX=0.5;exitY=1;exitDx=0;exitDy=0;" parent="1" edge="1">
          <mxGeometry relative="1" as="geometry">
            <mxPoint x="530" y="450" as="sourcePoint" />
            <mxPoint x="530" y="450" as="targetPoint" />
          </mxGeometry>
        </mxCell>
        <mxCell id="0UiauS-0_PkHhNujrABY-49" style="edgeStyle=orthogonalEdgeStyle;rounded=0;orthogonalLoop=1;jettySize=auto;html=1;exitX=1;exitY=0.5;exitDx=0;exitDy=0;entryX=0.5;entryY=0;entryDx=0;entryDy=0;startArrow=none;startFill=0;strokeColor=#000000;" parent="1" source="0UiauS-0_PkHhNujrABY-27" target="0UiauS-0_PkHhNujrABY-43" edge="1">
          <mxGeometry relative="1" as="geometry" />
        </mxCell>
        <mxCell id="0UiauS-0_PkHhNujrABY-27" value="no" style="text;html=1;strokeColor=none;fillColor=none;align=center;verticalAlign=middle;whiteSpace=wrap;rounded=0;" parent="1" vertex="1">
          <mxGeometry x="360" y="310" width="40" height="20" as="geometry" />
        </mxCell>
        <mxCell id="0UiauS-0_PkHhNujrABY-28" style="edgeStyle=orthogonalEdgeStyle;rounded=0;orthogonalLoop=1;jettySize=auto;html=1;exitX=0.5;exitY=1;exitDx=0;exitDy=0;startArrow=none;startFill=0;strokeColor=#000000;" parent="1" source="0UiauS-0_PkHhNujrABY-27" target="0UiauS-0_PkHhNujrABY-27" edge="1">
          <mxGeometry relative="1" as="geometry" />
        </mxCell>
        <mxCell id="0UiauS-0_PkHhNujrABY-50" style="edgeStyle=orthogonalEdgeStyle;rounded=0;orthogonalLoop=1;jettySize=auto;html=1;exitX=0;exitY=0.5;exitDx=0;exitDy=0;entryX=0.5;entryY=0;entryDx=0;entryDy=0;startArrow=none;startFill=0;strokeColor=#000000;" parent="1" source="0UiauS-0_PkHhNujrABY-29" target="0UiauS-0_PkHhNujrABY-37" edge="1">
          <mxGeometry relative="1" as="geometry" />
        </mxCell>
        <mxCell id="0UiauS-0_PkHhNujrABY-29" value="yes" style="text;html=1;strokeColor=none;fillColor=none;align=center;verticalAlign=middle;whiteSpace=wrap;rounded=0;" parent="1" vertex="1">
          <mxGeometry x="220" y="310" width="40" height="20" as="geometry" />
        </mxCell>
        <mxCell id="0UiauS-0_PkHhNujrABY-34" style="edgeStyle=orthogonalEdgeStyle;rounded=0;orthogonalLoop=1;jettySize=auto;html=1;exitX=0.5;exitY=1;exitDx=0;exitDy=0;entryX=0.5;entryY=0;entryDx=0;entryDy=0;startArrow=none;startFill=0;strokeColor=#000000;" parent="1" target="0UiauS-0_PkHhNujrABY-18" edge="1">
          <mxGeometry relative="1" as="geometry">
            <mxPoint x="310" y="270" as="sourcePoint" />
          </mxGeometry>
        </mxCell>
        <mxCell id="0UiauS-0_PkHhNujrABY-37" value="" style="rhombus;whiteSpace=wrap;html=1;" parent="1" vertex="1">
          <mxGeometry x="110" y="390" width="150" height="80" as="geometry" />
        </mxCell>
        <mxCell id="0UiauS-0_PkHhNujrABY-38" value="footware[position].laces" style="text;html=1;strokeColor=none;fillColor=none;align=center;verticalAlign=middle;whiteSpace=wrap;rounded=0;" parent="1" vertex="1">
          <mxGeometry x="100" y="420" width="170" height="20" as="geometry" />
        </mxCell>
        <mxCell id="0UiauS-0_PkHhNujrABY-43" value="" style="rhombus;whiteSpace=wrap;html=1;" parent="1" vertex="1">
          <mxGeometry x="360" y="390" width="150" height="80" as="geometry" />
        </mxCell>
        <mxCell id="0UiauS-0_PkHhNujrABY-44" value="footware[position].laces" style="text;html=1;strokeColor=none;fillColor=none;align=center;verticalAlign=middle;whiteSpace=wrap;rounded=0;" parent="1" vertex="1">
          <mxGeometry x="350" y="420" width="170" height="20" as="geometry" />
        </mxCell>
        <mxCell id="0UiauS-0_PkHhNujrABY-45" value="yes" style="text;html=1;strokeColor=none;fillColor=none;align=center;verticalAlign=middle;whiteSpace=wrap;rounded=0;" parent="1" vertex="1">
          <mxGeometry x="80" y="420" width="40" height="20" as="geometry" />
        </mxCell>
        <mxCell id="0UiauS-0_PkHhNujrABY-46" value="no" style="text;html=1;strokeColor=none;fillColor=none;align=center;verticalAlign=middle;whiteSpace=wrap;rounded=0;" parent="1" vertex="1">
          <mxGeometry x="250" y="420" width="40" height="20" as="geometry" />
        </mxCell>
        <mxCell id="0UiauS-0_PkHhNujrABY-56" style="edgeStyle=orthogonalEdgeStyle;rounded=0;orthogonalLoop=1;jettySize=auto;html=1;exitX=0;exitY=0.5;exitDx=0;exitDy=0;entryX=1;entryY=0.5;entryDx=0;entryDy=0;startArrow=none;startFill=0;endArrow=none;endFill=0;strokeColor=#000000;" parent="1" source="0UiauS-0_PkHhNujrABY-47" target="0UiauS-0_PkHhNujrABY-46" edge="1">
          <mxGeometry relative="1" as="geometry">
            <Array as="points">
              <mxPoint x="310" y="430" />
              <mxPoint x="310" y="430" />
            </Array>
          </mxGeometry>
        </mxCell>
        <mxCell id="0UiauS-0_PkHhNujrABY-47" value="yes" style="text;html=1;strokeColor=none;fillColor=none;align=center;verticalAlign=middle;whiteSpace=wrap;rounded=0;" parent="1" vertex="1">
          <mxGeometry x="330" y="420" width="40" height="20" as="geometry" />
        </mxCell>
        <mxCell id="0UiauS-0_PkHhNujrABY-48" value="no" style="text;html=1;strokeColor=none;fillColor=none;align=center;verticalAlign=middle;whiteSpace=wrap;rounded=0;" parent="1" vertex="1">
          <mxGeometry x="500" y="420" width="40" height="20" as="geometry" />
        </mxCell>
        <mxCell id="0UiauS-0_PkHhNujrABY-66" style="edgeStyle=orthogonalEdgeStyle;rounded=0;orthogonalLoop=1;jettySize=auto;html=1;exitX=0.5;exitY=0;exitDx=0;exitDy=0;entryX=0.5;entryY=1;entryDx=0;entryDy=0;startArrow=classic;startFill=1;endArrow=none;endFill=0;strokeColor=#000000;" parent="1" source="0UiauS-0_PkHhNujrABY-65" target="0UiauS-0_PkHhNujrABY-17" edge="1">
          <mxGeometry relative="1" as="geometry" />
        </mxCell>
        <mxCell id="0UiauS-0_PkHhNujrABY-65" value="position = 0" style="html=1;align=center;verticalAlign=top;rounded=1;absoluteArcSize=1;arcSize=10;dashed=0;" parent="1" vertex="1">
          <mxGeometry x="240" y="240" width="140" height="30" as="geometry" />
        </mxCell>
        <mxCell id="0UiauS-0_PkHhNujrABY-68" style="edgeStyle=orthogonalEdgeStyle;rounded=0;orthogonalLoop=1;jettySize=auto;html=1;exitX=1;exitY=0.5;exitDx=0;exitDy=0;entryX=0;entryY=0.5;entryDx=0;entryDy=0;startArrow=classic;startFill=1;endArrow=none;endFill=0;strokeColor=#000000;" parent="1" source="0UiauS-0_PkHhNujrABY-67" target="0UiauS-0_PkHhNujrABY-47" edge="1">
          <mxGeometry relative="1" as="geometry">
            <Array as="points">
              <mxPoint x="680" y="285" />
              <mxPoint x="680" y="590" />
              <mxPoint x="310" y="590" />
              <mxPoint x="310" y="430" />
            </Array>
          </mxGeometry>
        </mxCell>
        <mxCell id="0UiauS-0_PkHhNujrABY-73" style="edgeStyle=orthogonalEdgeStyle;rounded=0;orthogonalLoop=1;jettySize=auto;html=1;exitX=1;exitY=0.5;exitDx=0;exitDy=0;entryX=1;entryY=0.5;entryDx=0;entryDy=0;startArrow=classic;startFill=1;endArrow=none;endFill=0;strokeColor=#000000;" parent="1" source="0UiauS-0_PkHhNujrABY-67" target="0UiauS-0_PkHhNujrABY-72" edge="1">
          <mxGeometry relative="1" as="geometry">
            <Array as="points">
              <mxPoint x="680" y="285" />
              <mxPoint x="680" y="590" />
            </Array>
          </mxGeometry>
        </mxCell>
        <mxCell id="0UiauS-0_PkHhNujrABY-86" style="edgeStyle=orthogonalEdgeStyle;rounded=0;orthogonalLoop=1;jettySize=auto;html=1;exitX=1;exitY=0.5;exitDx=0;exitDy=0;entryX=1;entryY=0.5;entryDx=0;entryDy=0;startArrow=classic;startFill=1;endArrow=none;endFill=0;strokeColor=#000000;" parent="1" source="0UiauS-0_PkHhNujrABY-67" target="0UiauS-0_PkHhNujrABY-82" edge="1">
          <mxGeometry relative="1" as="geometry">
            <Array as="points">
              <mxPoint x="680" y="285" />
              <mxPoint x="680" y="730" />
            </Array>
          </mxGeometry>
        </mxCell>
        <mxCell id="0UiauS-0_PkHhNujrABY-67" value="&lt;span&gt;position = position + 1&lt;/span&gt;" style="html=1;align=center;verticalAlign=top;rounded=1;absoluteArcSize=1;arcSize=10;dashed=0;" parent="1" vertex="1">
          <mxGeometry x="420" y="270" width="140" height="30" as="geometry" />
        </mxCell>
        <mxCell id="0UiauS-0_PkHhNujrABY-70" value="" style="rhombus;whiteSpace=wrap;html=1;" parent="1" vertex="1">
          <mxGeometry x="50" y="540" width="200" height="100" as="geometry" />
        </mxCell>
        <mxCell id="0UiauS-0_PkHhNujrABY-71" value="customer.size = footwear.size?" style="text;html=1;strokeColor=none;fillColor=none;align=center;verticalAlign=middle;whiteSpace=wrap;rounded=0;" parent="1" vertex="1">
          <mxGeometry x="70" y="580" width="170" height="20" as="geometry" />
        </mxCell>
        <mxCell id="0UiauS-0_PkHhNujrABY-72" value="no" style="text;html=1;strokeColor=none;fillColor=none;align=center;verticalAlign=middle;whiteSpace=wrap;rounded=0;" parent="1" vertex="1">
          <mxGeometry x="240" y="580" width="40" height="20" as="geometry" />
        </mxCell>
        <mxCell id="0UiauS-0_PkHhNujrABY-76" value="yes" style="text;html=1;strokeColor=none;fillColor=none;align=center;verticalAlign=middle;whiteSpace=wrap;rounded=0;" parent="1" vertex="1">
          <mxGeometry x="20" y="580" width="40" height="20" as="geometry" />
        </mxCell>
        <mxCell id="0UiauS-0_PkHhNujrABY-84" style="edgeStyle=orthogonalEdgeStyle;rounded=0;orthogonalLoop=1;jettySize=auto;html=1;exitX=0.5;exitY=0;exitDx=0;exitDy=0;entryX=0;entryY=0.5;entryDx=0;entryDy=0;startArrow=classic;startFill=1;endArrow=none;endFill=0;strokeColor=#000000;" parent="1" source="0UiauS-0_PkHhNujrABY-78" target="0UiauS-0_PkHhNujrABY-76" edge="1">
          <mxGeometry relative="1" as="geometry">
            <Array as="points">
              <mxPoint x="150" y="650" />
              <mxPoint y="650" />
              <mxPoint y="590" />
            </Array>
          </mxGeometry>
        </mxCell>
        <mxCell id="0UiauS-0_PkHhNujrABY-78" value="" style="rhombus;whiteSpace=wrap;html=1;" parent="1" vertex="1">
          <mxGeometry x="42.5" y="680" width="215" height="100" as="geometry" />
        </mxCell>
        <mxCell id="0UiauS-0_PkHhNujrABY-79" value="customer.brand = footwear.brand?" style="text;html=1;strokeColor=none;fillColor=none;align=center;verticalAlign=middle;whiteSpace=wrap;rounded=0;" parent="1" vertex="1">
          <mxGeometry x="50" y="720" width="200" height="20" as="geometry" />
        </mxCell>
        <mxCell id="0UiauS-0_PkHhNujrABY-81" value="yes" style="text;html=1;strokeColor=none;fillColor=none;align=center;verticalAlign=middle;whiteSpace=wrap;rounded=0;" parent="1" vertex="1">
          <mxGeometry x="10" y="720" width="40" height="20" as="geometry" />
        </mxCell>
        <mxCell id="0UiauS-0_PkHhNujrABY-82" value="no" style="text;html=1;strokeColor=none;fillColor=none;align=center;verticalAlign=middle;whiteSpace=wrap;rounded=0;" parent="1" vertex="1">
          <mxGeometry x="250" y="720" width="40" height="20" as="geometry" />
        </mxCell>
        <mxCell id="4wXGlt5J8yg0CV67hJb_-1" value="" style="rhombus;whiteSpace=wrap;html=1;" vertex="1" parent="1">
          <mxGeometry x="880" y="70" width="120" height="60" as="geometry" />
        </mxCell>
        <mxCell id="4wXGlt5J8yg0CV67hJb_-2" value="position = 0" style="html=1;align=center;verticalAlign=top;rounded=1;absoluteArcSize=1;arcSize=10;dashed=0;" vertex="1" parent="1">
          <mxGeometry x="870" y="150" width="140" height="30" as="geometry" />
        </mxCell>
        <mxCell id="4wXGlt5J8yg0CV67hJb_-3" value="" style="ellipse;fillColor=#000000;strokeColor=none;" vertex="1" parent="1">
          <mxGeometry x="920" y="30" width="20" height="20" as="geometry" />
        </mxCell>
        <mxCell id="4wXGlt5J8yg0CV67hJb_-4" value="Text" style="text;html=1;strokeColor=none;fillColor=none;align=center;verticalAlign=middle;whiteSpace=wrap;rounded=0;" vertex="1" parent="1">
          <mxGeometry x="920" y="200" width="40" height="20" as="geometry" />
        </mxCell>
        <mxCell id="4wXGlt5J8yg0CV67hJb_-93" style="edgeStyle=orthogonalEdgeStyle;rounded=0;orthogonalLoop=1;jettySize=auto;html=1;exitX=0.5;exitY=1;exitDx=0;exitDy=0;entryX=0.5;entryY=0;entryDx=0;entryDy=0;" edge="1" parent="1" source="4wXGlt5J8yg0CV67hJb_-5" target="4wXGlt5J8yg0CV67hJb_-79">
          <mxGeometry relative="1" as="geometry" />
        </mxCell>
        <mxCell id="4wXGlt5J8yg0CV67hJb_-5" value="" style="ellipse;fillColor=#000000;strokeColor=none;" vertex="1" parent="1">
          <mxGeometry x="1530" y="10" width="20" height="20" as="geometry" />
        </mxCell>
        <mxCell id="4wXGlt5J8yg0CV67hJb_-6" value="A=0" style="html=1;align=center;verticalAlign=top;rounded=1;absoluteArcSize=1;arcSize=10;dashed=0;" vertex="1" parent="1">
          <mxGeometry x="930" y="570" width="140" height="30" as="geometry" />
        </mxCell>
        <mxCell id="4wXGlt5J8yg0CV67hJb_-12" style="edgeStyle=orthogonalEdgeStyle;rounded=0;orthogonalLoop=1;jettySize=auto;html=1;exitX=1;exitY=0.5;exitDx=0;exitDy=0;entryX=1;entryY=0.5;entryDx=0;entryDy=0;" edge="1" parent="1" source="4wXGlt5J8yg0CV67hJb_-7" target="4wXGlt5J8yg0CV67hJb_-11">
          <mxGeometry relative="1" as="geometry" />
        </mxCell>
        <mxCell id="4wXGlt5J8yg0CV67hJb_-7" value="Array[A]=null?" style="html=1;align=center;verticalAlign=top;rounded=1;absoluteArcSize=1;arcSize=10;dashed=0;" vertex="1" parent="1">
          <mxGeometry x="930" y="690" width="140" height="30" as="geometry" />
        </mxCell>
        <mxCell id="4wXGlt5J8yg0CV67hJb_-8" value="B=A+1" style="html=1;align=center;verticalAlign=top;rounded=1;absoluteArcSize=1;arcSize=10;dashed=0;" vertex="1" parent="1">
          <mxGeometry x="930" y="730" width="140" height="30" as="geometry" />
        </mxCell>
        <mxCell id="4wXGlt5J8yg0CV67hJb_-10" style="edgeStyle=orthogonalEdgeStyle;rounded=0;orthogonalLoop=1;jettySize=auto;html=1;exitX=0;exitY=0.5;exitDx=0;exitDy=0;" edge="1" parent="1" source="4wXGlt5J8yg0CV67hJb_-9">
          <mxGeometry relative="1" as="geometry">
            <mxPoint x="820" y="665" as="targetPoint" />
          </mxGeometry>
        </mxCell>
        <mxCell id="4wXGlt5J8yg0CV67hJb_-9" value="A=Array.length?" style="html=1;align=center;verticalAlign=top;rounded=1;absoluteArcSize=1;arcSize=10;dashed=0;" vertex="1" parent="1">
          <mxGeometry x="930" y="650" width="140" height="30" as="geometry" />
        </mxCell>
        <mxCell id="4wXGlt5J8yg0CV67hJb_-11" value="A=A+1" style="html=1;align=center;verticalAlign=top;rounded=1;absoluteArcSize=1;arcSize=10;dashed=0;" vertex="1" parent="1">
          <mxGeometry x="930" y="610" width="140" height="30" as="geometry" />
        </mxCell>
        <mxCell id="4wXGlt5J8yg0CV67hJb_-13" value="C=Array[B]" style="html=1;align=center;verticalAlign=top;rounded=1;absoluteArcSize=1;arcSize=10;dashed=0;" vertex="1" parent="1">
          <mxGeometry x="930" y="770" width="140" height="30" as="geometry" />
        </mxCell>
        <mxCell id="4wXGlt5J8yg0CV67hJb_-14" value="B=B-1" style="html=1;align=center;verticalAlign=top;rounded=1;absoluteArcSize=1;arcSize=10;dashed=0;" vertex="1" parent="1">
          <mxGeometry x="930" y="810" width="140" height="30" as="geometry" />
        </mxCell>
        <mxCell id="4wXGlt5J8yg0CV67hJb_-15" value="Array[B]=C" style="html=1;align=center;verticalAlign=top;rounded=1;absoluteArcSize=1;arcSize=10;dashed=0;" vertex="1" parent="1">
          <mxGeometry x="930" y="850" width="140" height="30" as="geometry" />
        </mxCell>
        <mxCell id="4wXGlt5J8yg0CV67hJb_-16" value="B=B+2" style="html=1;align=center;verticalAlign=top;rounded=1;absoluteArcSize=1;arcSize=10;dashed=0;" vertex="1" parent="1">
          <mxGeometry x="930" y="890" width="140" height="30" as="geometry" />
        </mxCell>
        <mxCell id="4wXGlt5J8yg0CV67hJb_-18" style="edgeStyle=orthogonalEdgeStyle;rounded=0;orthogonalLoop=1;jettySize=auto;html=1;exitX=1;exitY=0.5;exitDx=0;exitDy=0;entryX=1;entryY=0.5;entryDx=0;entryDy=0;" edge="1" parent="1" source="4wXGlt5J8yg0CV67hJb_-17" target="4wXGlt5J8yg0CV67hJb_-11">
          <mxGeometry relative="1" as="geometry" />
        </mxCell>
        <mxCell id="4wXGlt5J8yg0CV67hJb_-17" value="B&amp;gt;Array.length?" style="html=1;align=center;verticalAlign=top;rounded=1;absoluteArcSize=1;arcSize=10;dashed=0;" vertex="1" parent="1">
          <mxGeometry x="930" y="930" width="140" height="30" as="geometry" />
        </mxCell>
        <mxCell id="4wXGlt5J8yg0CV67hJb_-53" style="edgeStyle=orthogonalEdgeStyle;rounded=0;orthogonalLoop=1;jettySize=auto;html=1;exitX=0.5;exitY=1;exitDx=0;exitDy=0;entryX=0.5;entryY=0;entryDx=0;entryDy=0;" edge="1" parent="1" source="4wXGlt5J8yg0CV67hJb_-19" target="4wXGlt5J8yg0CV67hJb_-21">
          <mxGeometry relative="1" as="geometry" />
        </mxCell>
        <mxCell id="4wXGlt5J8yg0CV67hJb_-19" value="A=0" style="html=1;align=center;verticalAlign=top;rounded=1;absoluteArcSize=1;arcSize=10;dashed=0;" vertex="1" parent="1">
          <mxGeometry x="1289.8" y="850" width="140" height="30" as="geometry" />
        </mxCell>
        <mxCell id="4wXGlt5J8yg0CV67hJb_-24" style="edgeStyle=orthogonalEdgeStyle;rounded=0;orthogonalLoop=1;jettySize=auto;html=1;exitX=1;exitY=1;exitDx=0;exitDy=0;entryX=0.5;entryY=0;entryDx=0;entryDy=0;" edge="1" parent="1" source="4wXGlt5J8yg0CV67hJb_-20" target="4wXGlt5J8yg0CV67hJb_-23">
          <mxGeometry relative="1" as="geometry" />
        </mxCell>
        <mxCell id="4wXGlt5J8yg0CV67hJb_-43" style="edgeStyle=orthogonalEdgeStyle;rounded=0;orthogonalLoop=1;jettySize=auto;html=1;exitX=0;exitY=1;exitDx=0;exitDy=0;entryX=0.5;entryY=0;entryDx=0;entryDy=0;" edge="1" parent="1" source="4wXGlt5J8yg0CV67hJb_-20" target="4wXGlt5J8yg0CV67hJb_-41">
          <mxGeometry relative="1" as="geometry" />
        </mxCell>
        <mxCell id="4wXGlt5J8yg0CV67hJb_-20" value="Array[A]=null?" style="html=1;align=center;verticalAlign=top;rounded=1;absoluteArcSize=1;arcSize=10;dashed=0;" vertex="1" parent="1">
          <mxGeometry x="1289.8" y="1000" width="140" height="30" as="geometry" />
        </mxCell>
        <mxCell id="4wXGlt5J8yg0CV67hJb_-52" style="edgeStyle=orthogonalEdgeStyle;rounded=0;orthogonalLoop=1;jettySize=auto;html=1;exitX=0.5;exitY=1;exitDx=0;exitDy=0;entryX=0.5;entryY=0;entryDx=0;entryDy=0;" edge="1" parent="1" source="4wXGlt5J8yg0CV67hJb_-21" target="4wXGlt5J8yg0CV67hJb_-29">
          <mxGeometry relative="1" as="geometry" />
        </mxCell>
        <mxCell id="4wXGlt5J8yg0CV67hJb_-21" value="B=0" style="html=1;align=center;verticalAlign=top;rounded=1;absoluteArcSize=1;arcSize=10;dashed=0;" vertex="1" parent="1">
          <mxGeometry x="1289.8" y="890" width="140" height="30" as="geometry" />
        </mxCell>
        <mxCell id="4wXGlt5J8yg0CV67hJb_-35" style="edgeStyle=orthogonalEdgeStyle;rounded=0;orthogonalLoop=1;jettySize=auto;html=1;exitX=1;exitY=0.25;exitDx=0;exitDy=0;entryX=1;entryY=0.5;entryDx=0;entryDy=0;" edge="1" parent="1" source="4wXGlt5J8yg0CV67hJb_-23" target="4wXGlt5J8yg0CV67hJb_-29">
          <mxGeometry relative="1" as="geometry" />
        </mxCell>
        <mxCell id="4wXGlt5J8yg0CV67hJb_-23" value="A=A+1" style="html=1;align=center;verticalAlign=top;rounded=1;absoluteArcSize=1;arcSize=10;dashed=0;" vertex="1" parent="1">
          <mxGeometry x="1399.8" y="1070" width="140" height="30" as="geometry" />
        </mxCell>
        <mxCell id="4wXGlt5J8yg0CV67hJb_-51" style="edgeStyle=orthogonalEdgeStyle;rounded=0;orthogonalLoop=1;jettySize=auto;html=1;exitX=0.5;exitY=1;exitDx=0;exitDy=0;entryX=0.5;entryY=0;entryDx=0;entryDy=0;" edge="1" parent="1" source="4wXGlt5J8yg0CV67hJb_-29" target="4wXGlt5J8yg0CV67hJb_-20">
          <mxGeometry relative="1" as="geometry" />
        </mxCell>
        <mxCell id="4wXGlt5J8yg0CV67hJb_-54" style="edgeStyle=orthogonalEdgeStyle;rounded=0;orthogonalLoop=1;jettySize=auto;html=1;exitX=0;exitY=0.25;exitDx=0;exitDy=0;" edge="1" parent="1" source="4wXGlt5J8yg0CV67hJb_-29">
          <mxGeometry relative="1" as="geometry">
            <mxPoint x="1159.8" y="943" as="targetPoint" />
          </mxGeometry>
        </mxCell>
        <mxCell id="4wXGlt5J8yg0CV67hJb_-29" value="A&amp;gt;Array.length?" style="html=1;align=center;verticalAlign=top;rounded=1;absoluteArcSize=1;arcSize=10;dashed=0;" vertex="1" parent="1">
          <mxGeometry x="1289.8" y="935" width="140" height="30" as="geometry" />
        </mxCell>
        <mxCell id="4wXGlt5J8yg0CV67hJb_-36" value="Yes" style="text;html=1;strokeColor=none;fillColor=none;align=center;verticalAlign=middle;whiteSpace=wrap;rounded=0;" vertex="1" parent="1">
          <mxGeometry x="980" y="250" width="40" height="20" as="geometry" />
        </mxCell>
        <mxCell id="4wXGlt5J8yg0CV67hJb_-38" value="No" style="text;html=1;strokeColor=none;fillColor=none;align=center;verticalAlign=middle;whiteSpace=wrap;rounded=0;" vertex="1" parent="1">
          <mxGeometry x="1030" y="250" width="40" height="20" as="geometry" />
        </mxCell>
        <mxCell id="4wXGlt5J8yg0CV67hJb_-39" value="Yes" style="text;html=1;strokeColor=none;fillColor=none;align=center;verticalAlign=middle;whiteSpace=wrap;rounded=0;" vertex="1" parent="1">
          <mxGeometry x="1229.8" y="945" width="40" height="20" as="geometry" />
        </mxCell>
        <mxCell id="4wXGlt5J8yg0CV67hJb_-48" style="edgeStyle=orthogonalEdgeStyle;rounded=0;orthogonalLoop=1;jettySize=auto;html=1;exitX=1;exitY=0.5;exitDx=0;exitDy=0;entryX=0;entryY=0.5;entryDx=0;entryDy=0;" edge="1" parent="1" source="4wXGlt5J8yg0CV67hJb_-41" target="4wXGlt5J8yg0CV67hJb_-47">
          <mxGeometry relative="1" as="geometry">
            <Array as="points">
              <mxPoint x="1339.8" y="1085" />
              <mxPoint x="1339.8" y="1125" />
            </Array>
          </mxGeometry>
        </mxCell>
        <mxCell id="4wXGlt5J8yg0CV67hJb_-59" style="edgeStyle=orthogonalEdgeStyle;rounded=0;orthogonalLoop=1;jettySize=auto;html=1;exitX=0.5;exitY=1;exitDx=0;exitDy=0;entryX=0.5;entryY=0;entryDx=0;entryDy=0;" edge="1" parent="1" source="4wXGlt5J8yg0CV67hJb_-41" target="4wXGlt5J8yg0CV67hJb_-58">
          <mxGeometry relative="1" as="geometry" />
        </mxCell>
        <mxCell id="4wXGlt5J8yg0CV67hJb_-41" value="A=B?" style="html=1;align=center;verticalAlign=top;rounded=1;absoluteArcSize=1;arcSize=10;dashed=0;" vertex="1" parent="1">
          <mxGeometry x="1174.8" y="1070" width="140" height="30" as="geometry" />
        </mxCell>
        <mxCell id="4wXGlt5J8yg0CV67hJb_-45" value="Yes" style="text;html=1;strokeColor=none;fillColor=none;align=center;verticalAlign=middle;whiteSpace=wrap;rounded=0;" vertex="1" parent="1">
          <mxGeometry x="1339.8" y="1085" width="40" height="20" as="geometry" />
        </mxCell>
        <mxCell id="4wXGlt5J8yg0CV67hJb_-49" style="edgeStyle=orthogonalEdgeStyle;rounded=0;orthogonalLoop=1;jettySize=auto;html=1;exitX=0.5;exitY=0;exitDx=0;exitDy=0;entryX=0.5;entryY=1;entryDx=0;entryDy=0;" edge="1" parent="1" source="4wXGlt5J8yg0CV67hJb_-47" target="4wXGlt5J8yg0CV67hJb_-23">
          <mxGeometry relative="1" as="geometry" />
        </mxCell>
        <mxCell id="4wXGlt5J8yg0CV67hJb_-47" value="B=B+1" style="html=1;align=center;verticalAlign=top;rounded=1;absoluteArcSize=1;arcSize=10;dashed=0;" vertex="1" parent="1">
          <mxGeometry x="1399.8" y="1110" width="140" height="30" as="geometry" />
        </mxCell>
        <mxCell id="4wXGlt5J8yg0CV67hJb_-55" value="No" style="text;html=1;strokeColor=none;fillColor=none;align=center;verticalAlign=middle;whiteSpace=wrap;rounded=0;" vertex="1" parent="1">
          <mxGeometry x="1359.8" y="970" width="40" height="20" as="geometry" />
        </mxCell>
        <mxCell id="4wXGlt5J8yg0CV67hJb_-56" value="Yes" style="text;html=1;strokeColor=none;fillColor=none;align=center;verticalAlign=middle;whiteSpace=wrap;rounded=0;" vertex="1" parent="1">
          <mxGeometry x="1429.8" y="1030" width="40" height="20" as="geometry" />
        </mxCell>
        <mxCell id="4wXGlt5J8yg0CV67hJb_-57" value="No" style="text;html=1;strokeColor=none;fillColor=none;align=center;verticalAlign=middle;whiteSpace=wrap;rounded=0;" vertex="1" parent="1">
          <mxGeometry x="1249.8" y="1030" width="40" height="20" as="geometry" />
        </mxCell>
        <mxCell id="4wXGlt5J8yg0CV67hJb_-62" style="edgeStyle=orthogonalEdgeStyle;rounded=0;orthogonalLoop=1;jettySize=auto;html=1;exitX=0.5;exitY=1;exitDx=0;exitDy=0;" edge="1" parent="1" source="4wXGlt5J8yg0CV67hJb_-58" target="4wXGlt5J8yg0CV67hJb_-61">
          <mxGeometry relative="1" as="geometry" />
        </mxCell>
        <mxCell id="4wXGlt5J8yg0CV67hJb_-58" value="C=Array[A]" style="html=1;align=center;verticalAlign=top;rounded=1;absoluteArcSize=1;arcSize=10;dashed=0;" vertex="1" parent="1">
          <mxGeometry x="1174.8" y="1130" width="140" height="30" as="geometry" />
        </mxCell>
        <mxCell id="4wXGlt5J8yg0CV67hJb_-60" value="No" style="text;html=1;strokeColor=none;fillColor=none;align=center;verticalAlign=middle;whiteSpace=wrap;rounded=0;" vertex="1" parent="1">
          <mxGeometry x="1239.8" y="1105" width="40" height="20" as="geometry" />
        </mxCell>
        <mxCell id="4wXGlt5J8yg0CV67hJb_-64" style="edgeStyle=orthogonalEdgeStyle;rounded=0;orthogonalLoop=1;jettySize=auto;html=1;exitX=0.5;exitY=1;exitDx=0;exitDy=0;entryX=0.5;entryY=0;entryDx=0;entryDy=0;" edge="1" parent="1" source="4wXGlt5J8yg0CV67hJb_-61" target="4wXGlt5J8yg0CV67hJb_-63">
          <mxGeometry relative="1" as="geometry" />
        </mxCell>
        <mxCell id="4wXGlt5J8yg0CV67hJb_-61" value="Array[B]=C" style="html=1;align=center;verticalAlign=top;rounded=1;absoluteArcSize=1;arcSize=10;dashed=0;" vertex="1" parent="1">
          <mxGeometry x="1174.8" y="1180" width="140" height="30" as="geometry" />
        </mxCell>
        <mxCell id="4wXGlt5J8yg0CV67hJb_-65" style="edgeStyle=orthogonalEdgeStyle;rounded=0;orthogonalLoop=1;jettySize=auto;html=1;exitX=1;exitY=0.5;exitDx=0;exitDy=0;entryX=0.5;entryY=1;entryDx=0;entryDy=0;" edge="1" parent="1" source="4wXGlt5J8yg0CV67hJb_-63" target="4wXGlt5J8yg0CV67hJb_-47">
          <mxGeometry relative="1" as="geometry" />
        </mxCell>
        <mxCell id="4wXGlt5J8yg0CV67hJb_-63" value="Array[A]=null" style="html=1;align=center;verticalAlign=top;rounded=1;absoluteArcSize=1;arcSize=10;dashed=0;" vertex="1" parent="1">
          <mxGeometry x="1174.8" y="1230" width="140" height="30" as="geometry" />
        </mxCell>
        <mxCell id="4wXGlt5J8yg0CV67hJb_-66" value="76" style="html=1;align=center;verticalAlign=top;rounded=1;absoluteArcSize=1;arcSize=10;dashed=0;" vertex="1" parent="1">
          <mxGeometry x="2200" y="85" width="140" height="30" as="geometry" />
        </mxCell>
        <mxCell id="4wXGlt5J8yg0CV67hJb_-67" value="84" style="html=1;align=center;verticalAlign=top;rounded=1;absoluteArcSize=1;arcSize=10;dashed=0;" vertex="1" parent="1">
          <mxGeometry x="2200" y="415" width="140" height="30" as="geometry" />
        </mxCell>
        <mxCell id="4wXGlt5J8yg0CV67hJb_-68" value="36" style="html=1;align=center;verticalAlign=top;rounded=1;absoluteArcSize=1;arcSize=10;dashed=0;" vertex="1" parent="1">
          <mxGeometry x="2200" y="255" width="140" height="30" as="geometry" />
        </mxCell>
        <mxCell id="4wXGlt5J8yg0CV67hJb_-69" value="56" style="html=1;align=center;verticalAlign=top;rounded=1;absoluteArcSize=1;arcSize=10;dashed=0;" vertex="1" parent="1">
          <mxGeometry x="2200" y="170" width="140" height="30" as="geometry" />
        </mxCell>
        <mxCell id="4wXGlt5J8yg0CV67hJb_-70" value="34" style="html=1;align=center;verticalAlign=top;rounded=1;absoluteArcSize=1;arcSize=10;dashed=0;" vertex="1" parent="1">
          <mxGeometry x="2200" y="300" width="140" height="30" as="geometry" />
        </mxCell>
        <mxCell id="4wXGlt5J8yg0CV67hJb_-71" value="54" style="html=1;align=center;verticalAlign=top;rounded=1;absoluteArcSize=1;arcSize=10;dashed=0;" vertex="1" parent="1">
          <mxGeometry x="2200" y="455" width="140" height="30" as="geometry" />
        </mxCell>
        <mxCell id="4wXGlt5J8yg0CV67hJb_-72" value="null" style="html=1;align=center;verticalAlign=top;rounded=1;absoluteArcSize=1;arcSize=10;dashed=0;" vertex="1" parent="1">
          <mxGeometry x="2200" y="130" width="140" height="30" as="geometry" />
        </mxCell>
        <mxCell id="4wXGlt5J8yg0CV67hJb_-73" value="null" style="html=1;align=center;verticalAlign=top;rounded=1;absoluteArcSize=1;arcSize=10;dashed=0;" vertex="1" parent="1">
          <mxGeometry x="2200" y="335" width="140" height="30" as="geometry" />
        </mxCell>
        <mxCell id="4wXGlt5J8yg0CV67hJb_-74" value="null" style="html=1;align=center;verticalAlign=top;rounded=1;absoluteArcSize=1;arcSize=10;dashed=0;" vertex="1" parent="1">
          <mxGeometry x="2200" y="375" width="140" height="30" as="geometry" />
        </mxCell>
        <mxCell id="4wXGlt5J8yg0CV67hJb_-75" value="null" style="html=1;align=center;verticalAlign=top;rounded=1;absoluteArcSize=1;arcSize=10;dashed=0;" vertex="1" parent="1">
          <mxGeometry x="2200" y="215" width="140" height="30" as="geometry" />
        </mxCell>
        <mxCell id="4wXGlt5J8yg0CV67hJb_-76" value="A=0" style="html=1;align=center;verticalAlign=top;rounded=1;absoluteArcSize=1;arcSize=10;dashed=0;" vertex="1" parent="1">
          <mxGeometry x="2050" y="85" width="140" height="30" as="geometry" />
        </mxCell>
        <mxCell id="4wXGlt5J8yg0CV67hJb_-77" value="B=0" style="html=1;align=center;verticalAlign=top;rounded=1;absoluteArcSize=1;arcSize=10;dashed=0;" vertex="1" parent="1">
          <mxGeometry x="2050" y="125" width="140" height="30" as="geometry" />
        </mxCell>
        <mxCell id="4wXGlt5J8yg0CV67hJb_-78" value="C=54" style="html=1;align=center;verticalAlign=top;rounded=1;absoluteArcSize=1;arcSize=10;dashed=0;" vertex="1" parent="1">
          <mxGeometry x="2050" y="165" width="140" height="30" as="geometry" />
        </mxCell>
        <mxCell id="4wXGlt5J8yg0CV67hJb_-81" style="edgeStyle=orthogonalEdgeStyle;rounded=0;orthogonalLoop=1;jettySize=auto;html=1;exitX=0.5;exitY=1;exitDx=0;exitDy=0;entryX=0.5;entryY=0;entryDx=0;entryDy=0;" edge="1" parent="1" source="4wXGlt5J8yg0CV67hJb_-79" target="4wXGlt5J8yg0CV67hJb_-80">
          <mxGeometry relative="1" as="geometry" />
        </mxCell>
        <mxCell id="4wXGlt5J8yg0CV67hJb_-79" value="A = 0" style="html=1;align=center;verticalAlign=top;rounded=1;absoluteArcSize=1;arcSize=10;dashed=0;" vertex="1" parent="1">
          <mxGeometry x="1470" y="50" width="140" height="30" as="geometry" />
        </mxCell>
        <mxCell id="4wXGlt5J8yg0CV67hJb_-85" style="edgeStyle=orthogonalEdgeStyle;rounded=0;orthogonalLoop=1;jettySize=auto;html=1;exitX=0.5;exitY=1;exitDx=0;exitDy=0;entryX=0.5;entryY=0;entryDx=0;entryDy=0;" edge="1" parent="1" source="4wXGlt5J8yg0CV67hJb_-80" target="4wXGlt5J8yg0CV67hJb_-83">
          <mxGeometry relative="1" as="geometry" />
        </mxCell>
        <mxCell id="4wXGlt5J8yg0CV67hJb_-80" value="B = 0" style="html=1;align=center;verticalAlign=top;rounded=1;absoluteArcSize=1;arcSize=10;dashed=0;" vertex="1" parent="1">
          <mxGeometry x="1470" y="100" width="140" height="30" as="geometry" />
        </mxCell>
        <mxCell id="4wXGlt5J8yg0CV67hJb_-83" value="" style="rhombus;whiteSpace=wrap;html=1;" vertex="1" parent="1">
          <mxGeometry x="1475" y="150" width="130" height="60" as="geometry" />
        </mxCell>
        <mxCell id="4wXGlt5J8yg0CV67hJb_-84" value="A &amp;gt; Array.length?" style="text;html=1;strokeColor=none;fillColor=none;align=center;verticalAlign=middle;whiteSpace=wrap;rounded=0;" vertex="1" parent="1">
          <mxGeometry x="1490" y="170" width="100" height="20" as="geometry" />
        </mxCell>
        <mxCell id="4wXGlt5J8yg0CV67hJb_-92" style="edgeStyle=orthogonalEdgeStyle;rounded=0;orthogonalLoop=1;jettySize=auto;html=1;exitX=0.5;exitY=1;exitDx=0;exitDy=0;entryX=0.5;entryY=0;entryDx=0;entryDy=0;" edge="1" parent="1" source="4wXGlt5J8yg0CV67hJb_-87" target="4wXGlt5J8yg0CV67hJb_-90">
          <mxGeometry relative="1" as="geometry" />
        </mxCell>
        <mxCell id="4wXGlt5J8yg0CV67hJb_-87" value="No" style="text;html=1;strokeColor=none;fillColor=none;align=center;verticalAlign=middle;whiteSpace=wrap;rounded=0;" vertex="1" parent="1">
          <mxGeometry x="1520" y="210" width="40" height="20" as="geometry" />
        </mxCell>
        <mxCell id="4wXGlt5J8yg0CV67hJb_-89" style="edgeStyle=orthogonalEdgeStyle;rounded=0;orthogonalLoop=1;jettySize=auto;html=1;exitX=0;exitY=0.5;exitDx=0;exitDy=0;" edge="1" parent="1" source="4wXGlt5J8yg0CV67hJb_-88">
          <mxGeometry relative="1" as="geometry">
            <mxPoint x="1310" y="180.33333333333337" as="targetPoint" />
          </mxGeometry>
        </mxCell>
        <mxCell id="4wXGlt5J8yg0CV67hJb_-88" value="Yes" style="text;html=1;strokeColor=none;fillColor=none;align=center;verticalAlign=middle;whiteSpace=wrap;rounded=0;" vertex="1" parent="1">
          <mxGeometry x="1435" y="170" width="40" height="20" as="geometry" />
        </mxCell>
        <mxCell id="4wXGlt5J8yg0CV67hJb_-90" value="" style="rhombus;whiteSpace=wrap;html=1;" vertex="1" parent="1">
          <mxGeometry x="1480" y="250" width="120" height="60" as="geometry" />
        </mxCell>
        <mxCell id="4wXGlt5J8yg0CV67hJb_-91" value="Array[A] = null?" style="text;html=1;strokeColor=none;fillColor=none;align=center;verticalAlign=middle;whiteSpace=wrap;rounded=0;" vertex="1" parent="1">
          <mxGeometry x="1500" y="270" width="90" height="20" as="geometry" />
        </mxCell>
        <mxCell id="4wXGlt5J8yg0CV67hJb_-99" style="edgeStyle=orthogonalEdgeStyle;rounded=0;orthogonalLoop=1;jettySize=auto;html=1;exitX=1;exitY=0.5;exitDx=0;exitDy=0;entryX=1;entryY=0.5;entryDx=0;entryDy=0;" edge="1" parent="1" source="4wXGlt5J8yg0CV67hJb_-94" target="4wXGlt5J8yg0CV67hJb_-83">
          <mxGeometry relative="1" as="geometry" />
        </mxCell>
        <mxCell id="4wXGlt5J8yg0CV67hJb_-94" value="A = A+1" style="html=1;align=center;verticalAlign=top;rounded=1;absoluteArcSize=1;arcSize=10;dashed=0;" vertex="1" parent="1">
          <mxGeometry x="1590" y="335" width="140" height="30" as="geometry" />
        </mxCell>
        <mxCell id="4wXGlt5J8yg0CV67hJb_-96" style="edgeStyle=orthogonalEdgeStyle;rounded=0;orthogonalLoop=1;jettySize=auto;html=1;exitX=0.5;exitY=0;exitDx=0;exitDy=0;entryX=0.5;entryY=1;entryDx=0;entryDy=0;" edge="1" parent="1" source="4wXGlt5J8yg0CV67hJb_-95" target="4wXGlt5J8yg0CV67hJb_-94">
          <mxGeometry relative="1" as="geometry" />
        </mxCell>
        <mxCell id="4wXGlt5J8yg0CV67hJb_-95" value="B = B+1" style="html=1;align=center;verticalAlign=top;rounded=1;absoluteArcSize=1;arcSize=10;dashed=0;" vertex="1" parent="1">
          <mxGeometry x="1590" y="380" width="140" height="30" as="geometry" />
        </mxCell>
        <mxCell id="4wXGlt5J8yg0CV67hJb_-107" style="edgeStyle=orthogonalEdgeStyle;rounded=0;orthogonalLoop=1;jettySize=auto;html=1;exitX=1;exitY=0.25;exitDx=0;exitDy=0;entryX=0.5;entryY=0;entryDx=0;entryDy=0;" edge="1" parent="1" source="4wXGlt5J8yg0CV67hJb_-100" target="4wXGlt5J8yg0CV67hJb_-94">
          <mxGeometry relative="1" as="geometry" />
        </mxCell>
        <mxCell id="4wXGlt5J8yg0CV67hJb_-100" value="Yes" style="text;html=1;strokeColor=none;fillColor=none;align=center;verticalAlign=middle;whiteSpace=wrap;rounded=0;" vertex="1" parent="1">
          <mxGeometry x="1600" y="270" width="40" height="20" as="geometry" />
        </mxCell>
        <mxCell id="4wXGlt5J8yg0CV67hJb_-106" style="edgeStyle=orthogonalEdgeStyle;rounded=0;orthogonalLoop=1;jettySize=auto;html=1;exitX=0;exitY=0.25;exitDx=0;exitDy=0;entryX=0.5;entryY=0;entryDx=0;entryDy=0;" edge="1" parent="1" source="4wXGlt5J8yg0CV67hJb_-101" target="4wXGlt5J8yg0CV67hJb_-103">
          <mxGeometry relative="1" as="geometry" />
        </mxCell>
        <mxCell id="4wXGlt5J8yg0CV67hJb_-101" value="No" style="text;html=1;strokeColor=none;fillColor=none;align=center;verticalAlign=middle;whiteSpace=wrap;rounded=0;" vertex="1" parent="1">
          <mxGeometry x="1450" y="270" width="40" height="20" as="geometry" />
        </mxCell>
        <mxCell id="4wXGlt5J8yg0CV67hJb_-103" value="" style="rhombus;whiteSpace=wrap;html=1;" vertex="1" parent="1">
          <mxGeometry x="1370" y="335" width="120" height="60" as="geometry" />
        </mxCell>
        <mxCell id="4wXGlt5J8yg0CV67hJb_-105" value="A = B?" style="text;html=1;strokeColor=none;fillColor=none;align=center;verticalAlign=middle;whiteSpace=wrap;rounded=0;" vertex="1" parent="1">
          <mxGeometry x="1410" y="350" width="40" height="25" as="geometry" />
        </mxCell>
        <mxCell id="4wXGlt5J8yg0CV67hJb_-110" style="edgeStyle=orthogonalEdgeStyle;rounded=0;orthogonalLoop=1;jettySize=auto;html=1;exitX=1;exitY=0.5;exitDx=0;exitDy=0;entryX=0;entryY=0.5;entryDx=0;entryDy=0;" edge="1" parent="1" source="4wXGlt5J8yg0CV67hJb_-109" target="4wXGlt5J8yg0CV67hJb_-95">
          <mxGeometry relative="1" as="geometry" />
        </mxCell>
        <mxCell id="4wXGlt5J8yg0CV67hJb_-109" value="Yes" style="text;html=1;strokeColor=none;fillColor=none;align=center;verticalAlign=middle;whiteSpace=wrap;rounded=0;" vertex="1" parent="1">
          <mxGeometry x="1480" y="355" width="40" height="20" as="geometry" />
        </mxCell>
        <mxCell id="4wXGlt5J8yg0CV67hJb_-113" style="edgeStyle=orthogonalEdgeStyle;rounded=0;orthogonalLoop=1;jettySize=auto;html=1;exitX=0.5;exitY=1;exitDx=0;exitDy=0;entryX=0.5;entryY=0;entryDx=0;entryDy=0;" edge="1" parent="1" source="4wXGlt5J8yg0CV67hJb_-111" target="4wXGlt5J8yg0CV67hJb_-112">
          <mxGeometry relative="1" as="geometry" />
        </mxCell>
        <mxCell id="4wXGlt5J8yg0CV67hJb_-111" value="No" style="text;html=1;strokeColor=none;fillColor=none;align=center;verticalAlign=middle;whiteSpace=wrap;rounded=0;" vertex="1" parent="1">
          <mxGeometry x="1410" y="395" width="40" height="20" as="geometry" />
        </mxCell>
        <mxCell id="4wXGlt5J8yg0CV67hJb_-115" style="edgeStyle=orthogonalEdgeStyle;rounded=0;orthogonalLoop=1;jettySize=auto;html=1;exitX=0.5;exitY=1;exitDx=0;exitDy=0;entryX=0.5;entryY=0;entryDx=0;entryDy=0;" edge="1" parent="1" source="4wXGlt5J8yg0CV67hJb_-112" target="4wXGlt5J8yg0CV67hJb_-114">
          <mxGeometry relative="1" as="geometry" />
        </mxCell>
        <mxCell id="4wXGlt5J8yg0CV67hJb_-112" value="C = Array[A]" style="html=1;align=center;verticalAlign=top;rounded=1;absoluteArcSize=1;arcSize=10;dashed=0;" vertex="1" parent="1">
          <mxGeometry x="1360" y="430" width="140" height="30" as="geometry" />
        </mxCell>
        <mxCell id="4wXGlt5J8yg0CV67hJb_-117" style="edgeStyle=orthogonalEdgeStyle;rounded=0;orthogonalLoop=1;jettySize=auto;html=1;exitX=0.5;exitY=1;exitDx=0;exitDy=0;entryX=0.5;entryY=0;entryDx=0;entryDy=0;" edge="1" parent="1" source="4wXGlt5J8yg0CV67hJb_-114" target="4wXGlt5J8yg0CV67hJb_-116">
          <mxGeometry relative="1" as="geometry" />
        </mxCell>
        <mxCell id="4wXGlt5J8yg0CV67hJb_-114" value="Array[B] = C" style="html=1;align=center;verticalAlign=top;rounded=1;absoluteArcSize=1;arcSize=10;dashed=0;" vertex="1" parent="1">
          <mxGeometry x="1360" y="475" width="140" height="30" as="geometry" />
        </mxCell>
        <mxCell id="4wXGlt5J8yg0CV67hJb_-118" style="edgeStyle=orthogonalEdgeStyle;rounded=0;orthogonalLoop=1;jettySize=auto;html=1;exitX=1;exitY=0.5;exitDx=0;exitDy=0;entryX=0.5;entryY=1;entryDx=0;entryDy=0;" edge="1" parent="1" source="4wXGlt5J8yg0CV67hJb_-116" target="4wXGlt5J8yg0CV67hJb_-95">
          <mxGeometry relative="1" as="geometry" />
        </mxCell>
        <mxCell id="4wXGlt5J8yg0CV67hJb_-116" value="Array[A] = null" style="html=1;align=center;verticalAlign=top;rounded=1;absoluteArcSize=1;arcSize=10;dashed=0;" vertex="1" parent="1">
          <mxGeometry x="1360" y="520" width="140" height="30" as="geometry" />
        </mxCell>
      </root>
    </mxGraphModel>
  </diagram>
</mxfile>
